#!OML:ASF H:\Terrain\Patient Classification 1\Walking\liu\liu.ASF
:FULLY-SPECIFIED
:DEGREES
130
root 9.087080 15.934200 -19.076000 6.155100 7.922380 6.078360
lowerback -4.174805 -2.049335 -3.537635
upperback -0.595905 -2.443515 0.930145
thorax 2.094740 -1.276840 2.657290
lowerneck -9.843050 -2.758115 -6.607300
upperneck 10.275500 -3.237025 5.691850
head 5.343050 -1.353470 2.671840
rclavicle 0.000000 0.000000
rhumerus -23.827351 2.870625 -41.292599
rradius 16.194500
rwrist -9.546450
rhand -15.545600 -9.981100
rfingers 3.562510
rthumb -2.185595 -24.948549
lclavicle 0.000000 0.000000
lhumerus -16.064350 -12.301500 49.304401
lradius 17.737350
lwrist 2.506575
lhand -7.570050 -12.718500
lfingers 3.562510
lthumb 5.514850 2.126625
rfemur -21.169750 4.472750 2.695965
rtibia 13.720400
rfoot -11.141100 -5.585650
rtoes -10.420300
lfemur 10.164500 0.633505 -13.285150
ltibia -0.000000
lfoot -6.859450 -1.020460
ltoes -4.654160
131
root 9.059710 15.909700 -18.914000 6.150930 8.272640 6.364450
lowerback -4.046945 -2.103465 -3.704815
upperback -0.606695 -2.509655 0.906640
thorax 2.033980 -1.309955 2.725400
lowerneck -9.846700 -2.790390 -6.641550
upperneck 10.354350 -3.264970 5.641700
head 5.375950 -1.375050 2.656615
rclavicle -0.000000 0.000000
rhumerus -23.851999 2.793770 -41.258900
rradius 15.983000
rwrist -9.531300
rhand -15.357800 -10.724000
rfingers 3.562510
rthumb -2.004230 -25.695000
lclavicle -0.000000 0.000000
lhumerus -16.233801 -11.885850 49.375351
lradius 17.352449
lwrist 2.418930
lhand -6.999750 -12.357050
lfingers 3.562510
lthumb 6.064800 2.457140
rfemur -21.018650 4.099890 2.778450
rtibia 13.937900
rfoot -10.685700 -5.048750
rtoes -9.844850
lfemur 10.490150 0.600825 -13.267800
ltibia -0.000000
lfoot -6.557000 -1.018420
ltoes -4.874025
132
root 9.029940 15.887300 -18.745300 6.301240 8.373560 6.324820
lowerback -4.077885 -2.089525 -3.703220
upperback -0.619280 -2.490090 0.930345
thorax 2.037045 -1.300170 2.750840
lowerneck -9.900500 -2.828530 -6.730350
upperneck 10.301600 -3.286810 5.671550
head 5.374700 -1.386780 2.677430
rclavicle -0.000000 -0.000000
rhumerus -23.853550 2.636370 -41.181198
rradius 15.763500
rwrist -9.443900
rhand -14.402600 -14.153500
rfingers 3.562510
rthumb -1.081795 -29.137899
lclavicle -0.000000 -0.000000
lhumerus -16.340799 -11.524900 49.457699
lradius 16.849251
lwrist 2.236770
lhand -6.748600 -12.167900
lfingers 3.562510
lthumb 6.306950 2.631650
rfemur -21.039000 3.779915 3.091375
rtibia 14.238350
rfoot -9.812600 -4.876565
rtoes -10.266300
lfemur 10.722050 0.685975 -13.063200
ltibia -0.000000
lfoot -6.336150 -1.171920
ltoes -4.857910
133
root 9.005460 15.883200 -18.570601 6.392800 8.645650 6.119520
lowerback -4.121600 -2.096085 -3.550845
upperback -0.596510 -2.508460 0.928500
thorax 2.075030 -1.308675 2.656960
lowerneck -10.040150 -2.837435 -6.632300
upperneck 10.231150 -3.297300 5.638500
head 5.371850 -1.382760 2.643505
rclavicle 0.000000 -0.000000
rhumerus -23.949100 2.568785 -41.175900
rradius 15.722200
rwrist -9.355050
rhand -12.948650 -17.571350
rfingers 3.562510
rthumb 0.322464 -32.560749
lclavicle 0.000000 -0.000000
lhumerus -16.436350 -11.173200 49.410500
lradius 16.403450
lwrist 2.038155
lhand -6.795350 -11.999000
lfingers 3.562510
lthumb 6.261850 2.803355
rfemur -21.020000 3.297515 3.567405
rtibia 14.539350
rfoot -8.449150 -5.066750
rtoes -11.496500
lfemur 10.965700 0.692115 -12.745600
ltibia 0.000000
lfoot -6.058400 -1.485240
ltoes -3.841720
134
root 8.984380 15.890400 -18.394300 6.332580 8.887290 5.954520
lowerback -4.054220 -2.124235 -3.436195
upperback -0.546025 -2.560645 0.939140
thorax 2.089235 -1.334900 2.598750
lowerneck -10.143900 -2.837065 -6.510050
upperneck 10.105500 -3.292895 5.565450
head 5.337400 -1.375510 2.591310
rclavicle 0.000000 0.000000
rhumerus -24.014950 2.633690 -41.200600
rradius 15.760450
rwrist -9.258200
rhand -13.349350 -17.004601
rfingers 3.562510
rthumb -0.064519 -31.994450
lclavicle 0.000000 0.000000
lhumerus -16.455999 -10.590350 49.284302
lradius 15.928950
lwrist 1.743000
lhand -6.615950 -11.886500
lfingers 3.562510
lthumb 6.434850 2.905085
rfemur -20.966000 2.834400 3.982820
rtibia 14.864050
rfoot -7.015700 -5.145750
rtoes -11.647850
lfemur 11.291600 0.718700 -12.457800
ltibia 0.000000
lfoot -5.653700 -1.739280
ltoes -3.298080
135
root 8.956850 15.897500 -18.222099 6.317650 9.054780 5.618720
lowerback -3.974460 -2.111375 -3.263960
upperback -0.544050 -2.567180 1.010920
thorax 2.039295 -1.334855 2.582000
lowerneck -9.998550 -2.889880 -6.698600
upperneck 9.884700 -3.340280 5.689900
head 5.249150 -1.400990 2.656335
rclavicle 0.000000 0.000000
rhumerus -24.092550 2.646975 -41.169601
rradius 15.749950
rwrist -9.212650
rhand -15.238400 -14.531600
rfingers 3.562510
rthumb -1.888950 -29.504749
lclavicle 0.000000 0.000000
lhumerus -16.546700 -10.052750 49.329651
lradius 15.317950
lwrist 1.403335
lhand -6.709750 -11.964150
lfingers 3.562510
lthumb 6.344400 2.833110
rfemur -20.988550 2.595325 4.373215
rtibia 15.249950
rfoot -5.867550 -5.174600
rtoes -10.218050
lfemur 11.566050 0.792795 -12.119050
ltibia 0.000000
lfoot -5.261850 -1.661895
ltoes -5.160900
136
root 8.925590 15.899500 -18.046801 6.420620 9.204030 5.279160
lowerback -4.031540 -2.065055 -3.026530
upperback -0.539520 -2.521985 1.002615
thorax 2.048155 -1.308620 2.442485
lowerneck -9.918400 -2.945145 -6.794950
upperneck 9.774600 -3.428895 5.845150
head 5.217550 -1.433535 2.713745
rclavicle -0.000000 0.000000
rhumerus -24.213551 2.544015 -41.245098
rradius 15.660200
rwrist -9.395150
rhand -15.220400 -14.805050
rfingers 3.562510
rthumb -1.871590 -29.778500
lclavicle -0.000000 0.000000
lhumerus -16.635450 -9.861750 49.310799
lradius 14.624550
lwrist 1.171800
lhand -7.115150 -12.209600
lfingers 3.562510
lthumb 5.953500 2.611095
rfemur -21.045300 2.378630 4.773935
rtibia 15.678550
rfoot -5.048700 -5.219150
rtoes -9.596700
lfemur 11.741950 0.870105 -11.769700
ltibia -0.000000
lfoot -4.836745 -1.579665
ltoes -6.495350
137
root 8.896960 15.893400 -17.867901 6.468040 9.155440 5.091060
lowerback -4.082550 -1.999035 -2.868390
upperback -0.509315 -2.442315 0.949965
thorax 2.079630 -1.267305 2.305230
lowerneck -10.064900 -2.963760 -6.712550
upperneck 9.749300 -3.479900 5.927150
head 5.243550 -1.436695 2.720805
rclavicle 0.000000 0.000000
rhumerus -24.321350 2.481040 -41.388500
rradius 15.477700
rwrist -9.377650
rhand -13.698850 -16.307449
rfingers 3.562510
rthumb -0.402115 -31.296551
lclavicle 0.000000 0.000000
lhumerus -16.690599 -9.574450 49.173599
lradius 13.989050
lwrist 0.969055
lhand -7.204350 -12.285600
lfingers 3.562510
lthumb 5.867500 2.540060
rfemur -21.118450 2.107505 5.153400
rtibia 16.188351
rfoot -4.361125 -5.031600
rtoes -10.322650
lfemur 11.954050 1.034210 -11.484100
ltibia 0.000000
lfoot -4.424935 -1.668095
ltoes -6.480950
138
root 8.870980 15.880400 -17.698900 6.504140 9.004950 4.922210
lowerback -3.998105 -1.893000 -2.735430
upperback -0.532380 -2.317350 0.939880
thorax 1.980940 -1.200005 2.243120
lowerneck -10.111400 -2.999540 -6.803150
upperneck 9.732400 -3.537915 6.101300
head 5.266050 -1.449160 2.791795
rclavicle -0.000000 -0.000000
rhumerus -24.408350 2.366680 -41.409351
rradius 15.300500
rwrist -9.042250
rhand -13.000000 -16.499599
rfingers 3.562510
rthumb 0.272868 -31.489100
lclavicle -0.000000 -0.000000
lhumerus -16.881599 -8.900300 49.049549
lradius 13.573350
lwrist 0.713265
lhand -6.887150 -12.131550
lfingers 3.562510
lthumb 6.173350 2.676190
rfemur -21.262051 1.790680 5.541450
rtibia 16.778851
rfoot -3.704080 -4.560530
rtoes -10.997950
lfemur 12.170150 1.246665 -11.211550
ltibia 0.000000
lfoot -3.886590 -1.762485
ltoes -6.724300
139
root 8.847250 15.866500 -17.533600 6.548030 8.922190 4.971530
lowerback -3.890880 -1.857175 -2.731155
upperback -0.544580 -2.275695 0.930970
thorax 1.902110 -1.177050 2.243655
lowerneck -10.078950 -2.999780 -6.825800
upperneck 9.697950 -3.542570 6.142200
head 5.251000 -1.449395 2.809420
rclavicle 0.000000 0.000000
rhumerus -24.385099 2.388605 -41.436749
rradius 15.231550
rwrist -8.989000
rhand -13.327150 -15.258650
rfingers 3.562510
rthumb -0.043110 -30.248501
lclavicle 0.000000 0.000000
lhumerus -16.900351 -7.606250 48.632702
lradius 13.123250
lwrist 0.271925
lhand -3.112810 -9.289250
lfingers 3.562510
lthumb 9.807750 5.225950
rfemur -21.357599 1.483450 5.761550
rtibia 17.359400
rfoot -3.219800 -3.981320
rtoes -11.044650
lfemur 12.396150 1.416750 -11.057800
ltibia 0.000000
lfoot -3.093480 -1.801495
ltoes -6.804300
140
root 8.819380 15.861900 -17.362900 6.557970 8.851550 5.114550
lowerback -3.838725 -1.857365 -2.792230
upperback -0.514410 -2.271875 0.891485
thorax 1.905535 -1.176605 2.239105
lowerneck -10.069750 -2.977525 -6.689900
upperneck 9.573600 -3.523765 6.061400
head 5.192700 -1.439365 2.754865
rclavicle 0.000000 0.000000
rhumerus -24.335400 2.468495 -41.513199
rradius 15.141750
rwrist -9.009700
rhand -13.924600 -13.415050
rfingers 3.562510
rthumb -0.620120 -28.403099
lclavicle 0.000000 0.000000
lhumerus -16.794800 -6.250650 48.044552
lradius 12.541650
lwrist -0.264096
lhand -1.132190 -8.331300
lfingers 3.562510
lthumb 11.709900 5.966100
rfemur -21.396250 1.346800 5.838450
rtibia 17.884399
rfoot -2.876890 -3.428375
rtoes -10.230550
lfemur 12.647100 1.577335 -10.958000
ltibia -0.000000
lfoot -2.309780 -1.745675
ltoes -6.491800
